<svg width="24" height="24" viewBox="0 0 24 24" fill="none" xmlns="http://www.w3.org/2000/svg">
<path d="M4 4.99963C2.78555 5.91184 2 7.36418 2 9V15C2 17.7614 4.23858 20 7 20H17C19.7614 20 22 17.7614 22 15V9C22 7.36418 21.2144 5.91184 20 4.99963C20 6.05021 19.7931 7.09086 19.391 8.06147C18.989 9.03207 18.3997 9.91399 17.6569 10.6569C16.914 11.3997 16.0321 11.989 15.0615 12.391C14.0909 12.7931 13.0506 13 12 13C10.9494 13 9.90914 12.7931 8.93853 12.391C7.96793 11.989 7.08601 11.3997 6.34315 10.6569C5.60028 9.91398 5.011 9.03207 4.60896 8.06147C4.20693 7.09086 4 6.05021 4 4.99963Z" fill="#4B3425"/>
<path d="M18 4.10002C17.6769 4.03443 17.3425 4 17 4H7C6.65753 4 6.32311 4.03443 6 4.10002V5C6 5.78793 6.15519 6.56815 6.45672 7.2961C6.75825 8.02405 7.20021 8.68549 7.75736 9.24264C8.31451 9.79979 8.97595 10.2417 9.7039 10.5433C10.4319 10.8448 11.2121 11 12 11C12.7879 11 13.5681 10.8448 14.2961 10.5433C15.0241 10.2417 15.6855 9.79979 16.2426 9.24264C16.7998 8.68549 17.2417 8.02405 17.5433 7.2961C17.8448 6.56815 18 5.78793 18 5V4.10002Z" fill="#4B3425"/>
</svg>
